HIERARCHY
ROOT Hips
{
    OFFSET   0.000000   0.000000   0.000000
    CHANNELS 6 Xposition Yposition Zposition Zrotation Xrotation Yrotation
    JOINT Chest
    {
        OFFSET   0.000000   8.007230   0.000000
        CHANNELS 3 Zrotation Xrotation Yrotation
        JOINT Chest2
        {
            OFFSET   0.000000  22.077100   0.000000
            CHANNELS 3 Zrotation Xrotation Yrotation
            JOINT Neck
            {
                OFFSET   0.000000  23.254800  -0.000021
                CHANNELS 3 Zrotation Xrotation Yrotation
                JOINT Head
                {
                    OFFSET   0.000000  14.370000   1.956610
                    CHANNELS 3 Zrotation Xrotation Yrotation
                    End Site
                    {
                        OFFSET   0.000000  19.566000   0.000000
                    }
                }
            }
            JOINT LeftCollar
            {
                OFFSET   3.911900  19.017000  -0.467063
                CHANNELS 3 Zrotation Xrotation Yrotation
                JOINT LeftShoulder
                {
                    OFFSET  10.383700   0.000000   0.000000
                    CHANNELS 3 Zrotation Xrotation Yrotation
                    JOINT LeftElbow
                    {
                        OFFSET  26.662100   0.001529   0.000325
                        CHANNELS 3 Zrotation Xrotation Yrotation
                        JOINT LeftWrist
                        {
                            OFFSET  28.869000  -0.000011  -0.000096
                            CHANNELS 3 Zrotation Xrotation Yrotation
                            JOINT LeftFinger0
                            {
                                OFFSET   2.044650  -2.323460   3.252850
                                CHANNELS 3 Zrotation Xrotation Yrotation
                                JOINT LeftFinger01
                                {
                                    OFFSET   3.088130   0.000000   0.000000
                                    CHANNELS 3 Zrotation Xrotation Yrotation
                                    JOINT LeftFinger02
                                    {
                                        OFFSET   2.639460   0.000000   0.000000
                                        CHANNELS 3 Zrotation Xrotation Yrotation
                                        End Site
                                        {
                                            OFFSET   2.582190   0.000000   0.000000
                                        }
                                    }
                                }
                            }
                            JOINT LeftFinger1
                            {
                                OFFSET   8.364480   0.000000   3.252850
                                CHANNELS 3 Zrotation Xrotation Yrotation
                                JOINT LeftFinger11
                                {
                                    OFFSET   4.646930   0.000000   0.000000
                                    CHANNELS 3 Zrotation Xrotation Yrotation
                                    JOINT LeftFinger12
                                    {
                                        OFFSET   2.323460   0.000000   0.000000
                                        CHANNELS 3 Zrotation Xrotation Yrotation
                                        End Site
                                        {
                                            OFFSET   2.273050   0.000000   0.000000
                                        }
                                    }
                                }
                            }
                            JOINT LeftFinger2
                            {
                                OFFSET   8.364480   0.000016   1.078090
                                CHANNELS 3 Zrotation Xrotation Yrotation
                                JOINT LeftFinger21
                                {
                                    OFFSET   5.111620   0.000000   0.000000
                                    CHANNELS 3 Zrotation Xrotation Yrotation
                                    JOINT LeftFinger22
                                    {
                                        OFFSET   2.788160   0.000017   0.000000
                                        CHANNELS 3 Zrotation Xrotation Yrotation
                                        End Site
                                        {
                                            OFFSET   2.727660   0.000000   0.000000
                                        }
                                    }
                                }
                            }
                            JOINT LeftFinger3
                            {
                                OFFSET   7.899780   0.000015  -1.078090
                                CHANNELS 3 Zrotation Xrotation Yrotation
                                JOINT LeftFinger31
                                {
                                    OFFSET   4.646920   0.000000   0.000000
                                    CHANNELS 3 Zrotation Xrotation Yrotation
                                    JOINT LeftFinger32
                                    {
                                        OFFSET   2.323470   0.000000   0.000000
                                        CHANNELS 3 Zrotation Xrotation Yrotation
                                        End Site
                                        {
                                            OFFSET   2.273050   0.000000   0.000000
                                        }
                                    }
                                }
                            }
                            JOINT LeftFinger4
                            {
                                OFFSET   7.435090   0.000000  -3.252850
                                CHANNELS 3 Zrotation Xrotation Yrotation
                                JOINT LeftFinger41
                                {
                                    OFFSET   3.717550   0.000000   0.000000
                                    CHANNELS 3 Zrotation Xrotation Yrotation
                                    JOINT LeftFinger42
                                    {
                                        OFFSET   1.858760   0.000000   0.000000
                                        CHANNELS 3 Zrotation Xrotation Yrotation
                                        End Site
                                        {
                                            OFFSET   1.818440   0.000000   0.000000
                                        }
                                    }
                                }
                            }
                        }
                    }
                }
            }
            JOINT RightCollar
            {
                OFFSET  -3.911900  19.017000  -0.467062
                CHANNELS 3 Zrotation Xrotation Yrotation
                JOINT RightShoulder
                {
                    OFFSET -10.383700   0.000015   0.000000
                    CHANNELS 3 Zrotation Xrotation Yrotation
                    JOINT RightElbow
                    {
                        OFFSET -26.662100   0.001341   0.000385
                        CHANNELS 3 Zrotation Xrotation Yrotation
                        JOINT RightWrist
                        {
                            OFFSET -28.869000   0.000025  -0.000080
                            CHANNELS 3 Zrotation Xrotation Yrotation
                            JOINT RightFinger0
                            {
                                OFFSET  -2.044650  -2.323490   3.252850
                                CHANNELS 3 Zrotation Xrotation Yrotation
                                JOINT RightFinger01
                                {
                                    OFFSET  -3.088130   0.000000   0.000000
                                    CHANNELS 3 Zrotation Xrotation Yrotation
                                    JOINT RightFinger02
                                    {
                                        OFFSET  -2.639460   0.000000   0.000000
                                        CHANNELS 3 Zrotation Xrotation Yrotation
                                        End Site
                                        {
                                            OFFSET  -2.582190   0.000000   0.000000
                                        }
                                    }
                                }
                            }
                            JOINT RightFinger1
                            {
                                OFFSET  -8.364480   0.000000   3.252850
                                CHANNELS 3 Zrotation Xrotation Yrotation
                                JOINT RightFinger11
                                {
                                    OFFSET  -4.646930   0.000000   0.000000
                                    CHANNELS 3 Zrotation Xrotation Yrotation
                                    JOINT RightFinger12
                                    {
                                        OFFSET  -2.323470   0.000000   0.000000
                                        CHANNELS 3 Zrotation Xrotation Yrotation
                                        End Site
                                        {
                                            OFFSET  -2.273050   0.000000   0.000000
                                        }
                                    }
                                }
                            }
                            JOINT RightFinger2
                            {
                                OFFSET  -8.364480   0.000000   1.078090
                                CHANNELS 3 Zrotation Xrotation Yrotation
                                JOINT RightFinger21
                                {
                                    OFFSET  -5.111610   0.000000   0.000000
                                    CHANNELS 3 Zrotation Xrotation Yrotation
                                    JOINT RightFinger22
                                    {
                                        OFFSET  -2.788160   0.000000   0.000000
                                        CHANNELS 3 Zrotation Xrotation Yrotation
                                        End Site
                                        {
                                            OFFSET  -2.727660   0.000000   0.000000
                                        }
                                    }
                                }
                            }
                            JOINT RightFinger3
                            {
                                OFFSET  -7.899780   0.000000  -1.078090
                                CHANNELS 3 Zrotation Xrotation Yrotation
                                JOINT RightFinger31
                                {
                                    OFFSET  -4.646920   0.000000   0.000000
                                    CHANNELS 3 Zrotation Xrotation Yrotation
                                    JOINT RightFinger32
                                    {
                                        OFFSET  -2.323470   0.000000   0.000000
                                        CHANNELS 3 Zrotation Xrotation Yrotation
                                        End Site
                                        {
                                            OFFSET  -2.273050   0.000000   0.000000
                                        }
                                    }
                                }
                            }
                            JOINT RightFinger4
                            {
                                OFFSET  -7.435090   0.000000  -3.252850
                                CHANNELS 3 Zrotation Xrotation Yrotation
                                JOINT RightFinger41
                                {
                                    OFFSET  -3.717550   0.000000   0.000000
                                    CHANNELS 3 Zrotation Xrotation Yrotation
                                    JOINT RightFinger42
                                    {
                                        OFFSET  -1.858770   0.000000   0.000000
                                        CHANNELS 3 Zrotation Xrotation Yrotation
                                        End Site
                                        {
                                            OFFSET  -1.818440   0.000000   0.000000
                                        }
                                    }
                                }
                            }
                        }
                    }
                }
            }
        }
    }
    JOINT LeftHip
    {
        OFFSET   9.783010   0.000000   0.000000
        CHANNELS 3 Zrotation Xrotation Yrotation
        JOINT LeftKnee
        {
            OFFSET   0.000070 -41.789100   0.000028
            CHANNELS 3 Zrotation Xrotation Yrotation
            JOINT LeftAnkle
            {
                OFFSET   0.000087 -41.133200  -0.000100
                CHANNELS 3 Zrotation Xrotation Yrotation
                JOINT LeftToe
                {
                    OFFSET   0.000000  -6.358960  14.674500
                    CHANNELS 3 Zrotation Xrotation Yrotation
                    End Site
                    {
                        OFFSET   0.000000   0.000000   3.913200
                    }
                }
            }
        }
    }
    JOINT RightHip
    {
        OFFSET  -9.783020   0.000000   0.000000
        CHANNELS 3 Zrotation Xrotation Yrotation
        JOINT RightKnee
        {
            OFFSET   0.000044 -41.789100  -0.000870
            CHANNELS 3 Zrotation Xrotation Yrotation
            JOINT RightAnkle
            {
                OFFSET  -0.000090 -41.133200  -0.000245
                CHANNELS 3 Zrotation Xrotation Yrotation
                JOINT RightToe
                {
                    OFFSET   0.000000  -6.358960  14.674500
                    CHANNELS 3 Zrotation Xrotation Yrotation
                    End Site
                    {
                        OFFSET   0.000000   0.000000   3.913200
                    }
                }
            }
        }
    }
}
MOTION
Frames: 4
Frame Time:   0.016667
  1.340470  89.471800   0.622659   0.341453 -13.421900   4.243450  -0.034204  12.321000   2.351000  -0.622464  24.629600   4.883380  -7.367020  -2.587700  -0.334495 -12.166600  -4.988530  -8.245780  -5.448990  -3.695440   8.449860 -73.350000  15.803500  -6.321700  -0.335715  -3.024100 -18.364900   8.376230  -9.343820  -5.552310  44.923800  37.828400 -61.115300 -29.096600  -0.000804   0.005827  -9.548320   0.002461   0.000037 -32.676600   1.179630  -1.838760 -26.751000   0.012519   0.005993 -18.725700   0.008604   0.005243 -30.489300   1.108960  -1.882280 -45.761300   0.022488   0.012155 -30.477000   0.013363   0.010314 -28.345300  -3.835750   7.069230 -37.157900   0.015338   0.004604 -24.747200   0.010072   0.009195 -33.223500  -6.549710   9.882520 -50.683400   0.028004   0.011561 -33.755200   0.017303   0.010704   0.445358  -2.858230  14.012800  69.793300   7.564580  58.013600  -5.347180 -21.200500  44.785500 -102.677000 -66.441600 -80.699000 -42.017000  34.207000  75.177500  12.073500   0.000000  -0.000085   1.036750   0.003638  -0.001326  40.901300  -3.290860  -3.839110  33.553200  -0.004377  -0.002613  23.798500  -0.001139  -0.000407  30.838300  -2.579640  -4.351340  46.401800  -0.003358  -0.000873  30.903600  -0.000670  -0.000441  29.234700  -4.969770  -8.816760  43.654600  -0.002581  -0.000435  29.074000  -0.002663   0.006069  43.184400  -9.088080  -9.549950  65.921100  -0.003156  -0.001129  43.903600  -0.000788   0.005605   1.058340  13.724200   0.869691   0.547100   1.737180   5.901360  -1.564340  -2.160970  -3.194520   0.000000   0.000000   0.000000  -0.789491  14.289900  -7.743550  -0.768207   4.802940 -11.135200   0.661665  -4.762870  -2.804780  -0.000000   0.000000   0.000000
  1.328150  89.473600   0.614699   0.325603 -13.450200   4.161380  -0.048438  12.312600   2.355610  -0.652829  24.612200   4.898520  -7.309310  -2.531190  -0.324617 -12.069500  -4.883690  -8.181980  -5.433380  -3.690740   8.446530 -73.268400  15.936600  -6.330610  -0.342228  -3.026420 -18.311800   8.327940  -9.266010  -5.591550  44.899100  37.771200 -60.981600 -29.086300  -0.000707   0.011844  -9.543180   0.002302  -0.000153 -32.632800   1.155890  -1.804180 -26.714600   0.024082   0.011828 -18.700200   0.015634   0.010377 -30.469600   1.086740  -1.846660 -45.730800   0.045804   0.025195 -30.456700   0.027387   0.021470 -28.336400  -3.848800   7.095290 -37.063000   0.033017   0.009313 -24.684000   0.021399   0.012519 -33.166100  -6.557630   9.912070 -50.603200   0.059711   0.024229 -33.701700   0.036600   0.022402   0.441729  -2.908840  14.010300  69.629100   7.531290  58.249500  -5.030230 -21.353900  44.191700 -103.181000 -66.382900 -81.459200 -41.862600  34.091700  75.125300  12.479400   0.000000  -0.000191   1.239730   0.003653  -0.001348  44.578300  -2.895050  -3.001270  36.532800  -0.004315  -0.002702  26.527100  -0.001259  -0.000245  33.266700  -2.266900  -3.504750  50.000400  -0.003475   0.000349  33.300300  -0.000942  -0.000441  31.221400  -5.057680  -8.305940  47.553700  -0.002800  -0.000485  31.670800  -0.002807   0.005776  46.096800  -9.222800  -8.777560  70.214200  -0.003364  -0.001171  46.762800  -0.000475   0.005533   1.057250  13.741100   0.861751   0.551550   1.759280   5.936880  -1.563850  -2.177900  -3.143320  -0.000000   0.000000  -0.000000  -0.785600  14.299000  -7.743640  -0.780008   4.823100 -11.089800   0.656776  -4.768490  -2.768570  -0.000000   0.000000   0.000000
  1.315520  89.477500   0.605921   0.302680 -13.476500   4.077160  -0.065457  12.302300   2.373930  -0.692324  24.590600   4.941860  -7.245920  -2.483750  -0.315692 -11.963600  -4.795910  -8.187190  -5.414740  -3.683620   8.432440 -73.205200  16.012800  -6.333590  -0.348383  -3.025820 -18.302200   8.328030  -9.219840  -5.634680  44.880400  37.692400 -60.885100 -29.031900  -0.000625   0.009732  -9.515980   0.002071  -0.000197 -32.590400   1.190230  -1.860160 -26.680800   0.019179   0.007453 -18.676500   0.012831   0.006765 -30.485600   1.120700  -1.902860 -45.756400   0.036508   0.014722 -30.473800   0.023645   0.013138 -28.336700  -3.816530   7.035810 -37.027800   0.026035   0.004546 -24.660500   0.017355   0.006343 -33.156500  -6.520910   9.859030 -50.584200   0.050850   0.016243 -33.689100   0.032447   0.015675   0.450515  -2.976800  13.995300  69.563900   7.478650  58.321500  -4.831200 -21.362600  43.576300 -103.547000 -67.048000 -82.179500 -41.787500  34.229600  75.346400  12.329900   0.000000  -0.000327   1.164990   0.003666  -0.001335  47.257300  -2.582350  -2.406990  38.708300  -0.004246  -0.002698  28.601900  -0.001473  -0.000027  34.943600  -2.015970  -2.899410  52.490200  -0.003599   0.001760  34.958400  -0.001167  -0.000375  32.913300  -5.157560  -7.918950  50.086000  -0.003045  -0.000503  33.357300  -0.002941   0.005486  48.319400  -9.215420  -8.106110  73.465100  -0.003780  -0.001030  48.927900  -0.000064   0.005439   1.063740  13.746600   0.856050   0.555130   1.786750   5.965440  -1.562900  -2.192990  -3.085090  -0.000000   0.000000   0.000000  -0.784268  14.291800  -7.748460  -0.784017   4.850850 -11.041000   0.654094  -4.766770  -2.729260   0.000000   0.000000  -0.000000
  1.302140  89.481500   0.595899   0.275169 -13.491100   3.997490  -0.083020  12.290600   2.399980  -0.733719  24.566100   4.997930  -7.184010  -2.447780  -0.308456 -11.858900  -4.730420  -8.225910  -5.404240  -3.679500   8.405100 -73.153500  16.042000  -6.334610  -0.351040  -3.020490 -18.300800   8.342360  -9.201770  -5.670050  44.860600  37.617500 -60.803600 -28.967000  -0.000322   0.007621  -9.483490   0.001759  -0.000204 -32.560100   1.238810  -1.939150 -26.657200   0.014276   0.003079 -18.660100   0.010028   0.003153 -30.524300   1.169190  -1.981880 -45.816800   0.027212   0.004248 -30.514000   0.019904   0.004807 -28.342500  -3.772590   6.954600 -37.018700   0.019054  -0.000222 -24.654400   0.013311   0.000166 -33.166600  -6.471050   9.784170 -50.581500   0.041989   0.008256 -33.687300   0.028294   0.008948   0.458648  -3.023050  13.971400  69.550300   7.412420  58.319300  -4.772060 -21.252900  43.202900 -103.543000 -68.106800 -82.397900 -41.788800  34.543200  75.782400  11.953700   0.000000  -0.000477   0.976872   0.003673  -0.001311  48.664400  -2.411340  -2.099170  39.852800  -0.004174  -0.002670  29.716000  -0.001693   0.000226  35.798800  -1.877750  -2.584480  53.762300  -0.003739   0.003363  35.805600  -0.001410  -0.000254  33.869700  -5.219890  -7.711500  51.332100  -0.003340  -0.000510  34.187100  -0.003078   0.005191  49.522500  -9.136050  -7.709380  75.207300  -0.004198  -0.000723  50.088100   0.000454   0.005334   1.077150  13.747700   0.853078   0.556042   1.811680   5.988300  -1.562290  -2.206480  -3.031200   0.000000   0.000000   0.000000  -0.782058  14.281700  -7.756580  -0.785869   4.868290 -10.996200   0.651223  -4.759890  -2.688500  -0.000000   0.000000   0.000000
